<?xml version="1.0" encoding="utf-8"?>
<!-- Generator: Adobe Illustrator 16.0.0, SVG Export Plug-In . SVG Version: 6.00 Build 0)  -->
<!DOCTYPE svg PUBLIC "-//W3C//DTD SVG 1.1//EN" "http://www.w3.org/Graphics/SVG/1.1/DTD/svg11.dtd">
<svg version="1.1" id="Ñëîé_1" xmlns="http://www.w3.org/2000/svg" xmlns:xlink="http://www.w3.org/1999/xlink" x="0px" y="0px"
	 width="2000px" height="2000px" viewBox="0 0 2000 2000" enable-background="new 0 0 2000 2000" xml:space="preserve">
<rect fill="#FFFFFF" width="2000" height="2000"/>
<g>
	<path d="M1468.51,750.72c-0.55-1.05-1.13-2.1-1.67-3.16l-0.25-0.47c-89.67-168.1-266.109-282.42-469.09-282.42
		c-202.98,0-379.39,114.32-469.06,282.42c-0.65,1.2-1.26,2.43-1.92,3.63c-3.15,6.021-6.2,12.15-9.14,18.31h960.23
		C1474.71,762.87,1471.66,756.74,1468.51,750.72z"/>
	<path d="M517.38,1230.18c2.94,6.16,5.99,12.29,9.14,18.311c89.06,170.09,266.55,286.05,470.98,286.05
		c204.43,0,381.95-115.96,471.01-286.05c3.15-6.021,6.2-12.15,9.101-18.311H517.38z"/>
</g>
<path d="M1801.841,769.029c-0.472-1.668-0.942-3.3-1.415-4.968c-1.269-4.496-2.574-8.956-3.952-13.343
	c-0.326-1.016-0.652-2.067-0.979-3.082c-52.142-167.047-158.128-316.98-298.452-422.206C1351.896,216.544,1179.156,159,997.497,159
	c-181.624,0-354.364,57.544-499.547,166.431C357.626,430.656,251.64,580.589,199.498,747.6c-0.326,1.052-0.652,2.067-0.943,3.119
	c-1.377,4.459-2.719,8.919-3.952,13.271c-0.472,1.668-0.979,3.372-1.415,5.04c-21.175,74.55-31.908,152.108-31.908,230.574
	s10.733,156.097,31.908,230.574c0.436,1.669,0.906,3.3,1.378,4.932c1.269,4.46,2.61,8.956,3.988,13.38
	c0.291,1.052,0.617,2.066,0.943,3.082c52.142,167.047,158.128,316.98,298.452,422.205
	c145.183,108.852,317.923,166.395,499.547,166.395c181.625,0,354.364-57.543,499.546-166.395
	c140.324-105.225,246.311-255.158,298.452-422.169c0.326-1.052,0.652-2.066,0.943-3.118c1.413-4.388,2.719-8.848,3.951-13.234
	c0.509-1.705,0.979-3.373,1.415-5.077c21.211-74.549,31.944-152.072,31.944-230.574
	C1833.749,921.065,1822.979,843.506,1801.841,769.029z M1760.903,1240.765c-0.798,2.575-1.631,5.149-2.465,7.724
	c-107.401,332.571-412.162,555.422-760.942,555.422c-348.743,0-653.504-222.814-760.941-555.422
	c-0.834-2.574-1.668-5.148-2.466-7.76c-1.125-3.517-2.176-6.998-3.227-10.552c-0.472-1.668-0.979-3.335-1.451-5.039
	c-21.139-72.846-31.872-148.737-31.872-225.535c0-76.798,10.732-152.688,31.908-225.643c0.472-1.632,0.943-3.3,1.451-4.931
	c1.015-3.517,2.066-7.034,3.19-10.588c0.797-2.574,1.631-5.149,2.466-7.723c107.437-332.572,412.198-555.459,760.941-555.459
	c348.744,0,653.541,222.851,760.942,555.459c0.834,2.574,1.667,5.149,2.465,7.759c1.124,3.481,2.176,6.999,3.19,10.552
	c0.509,1.668,1.016,3.372,1.487,5.076c21.175,72.773,31.909,148.664,31.909,225.498c0,76.834-10.734,152.725-31.945,225.607
	c-0.472,1.668-0.942,3.335-1.451,4.967C1763.079,1233.73,1762.027,1237.248,1760.903,1240.765z"/>
<path d="M997.51,1784.33c-430.48,0-780.703-352.032-780.703-784.738c0-432.706,350.223-784.737,780.703-784.737
	c430.48,0,780.701,352.032,780.701,784.737C1778.211,1432.298,1427.99,1784.33,997.51,1784.33z M997.51,243.862
	c-414.485,0-751.695,339.019-751.695,755.73c0,416.712,337.21,755.73,751.695,755.73c414.486,0,751.693-339.019,751.693-755.73
	C1749.203,582.881,1411.996,243.862,997.51,243.862z"/>
<g>
	<path fill="#FFFFFF" d="M997.51,1501.212c-275.082,0-498.875-225.024-498.875-501.62c0-276.595,223.794-501.622,498.875-501.622
		c275.08,0,498.872,225.026,498.872,501.622C1496.382,1276.188,1272.59,1501.212,997.51,1501.212z M997.51,519.726
		c-263.084,0-477.12,215.268-477.12,479.866c0,264.599,214.036,479.864,477.12,479.864c263.083,0,477.117-215.266,477.117-479.864
		C1474.627,734.994,1260.593,519.726,997.51,519.726z"/>
</g>
<circle fill="#FEFEFE" cx="1607.879" cy="1011.178" r="43.506"/>
<path fill-rule="evenodd" clip-rule="evenodd" d="M1833.75,999.6c0,3.91-0.03,7.83-0.09,11.74c-0.33,25.05-1.771,49.99-4.29,74.76
	c-0.79,7.79-1.7,15.551-2.7,23.301c-5.32,40.899-13.62,81.26-24.87,120.779H193.19c-21.18-74.479-31.91-152.109-31.91-230.58
	c0-78.46,10.73-156.02,31.91-230.57h1608.65c11.21,39.5,19.5,79.86,24.82,120.77c1.01,7.75,1.91,15.52,2.7,23.31
	c2.529,24.76,3.97,49.7,4.3,74.76C1833.72,991.78,1833.75,995.69,1833.75,999.6z"/>
<path d="M629.132,1445.936l-20.867-17.835l-108.713,69.524l24.613,21.015l21.089-14.581l24.239,20.674l-9.584,24.356l24.612,21.018
	l44.632-124.237L629.132,1445.936z M567.64,1486.771l29.223-22.548l0.645,0.573l-16.261,33.597l-13.544-11.601L567.64,1486.771z
	 M619.738,1595.152l26.396,14.253l16.712-32.214l15.492,8.381c25.229,13.585,48.147,1.051,58.326-18.533
	c10.074-19.474,7.471-45.76-18.05-59.512l-41.722-22.51l-57.176,110.199L619.738,1595.152z M675.677,1552.438l14.124-27.243
	l15.325,8.255c16.035,8.414,1.742,35.964-14.125,27.242L675.677,1552.438z M743.365,1657.819l28.695,8.678l10.556-34.797
	l16.832,5.111c27.38,8.252,47.732-8.534,54.134-29.71c6.401-20.959-1.002-46.118-28.672-54.535l-45.34-13.729l-36.183,118.915
	L743.365,1657.819z M790.752,1604.982l8.927-29.366l16.645,5.048c17.335,5.056,8.3,34.753-8.928,29.369L790.752,1604.982z
	 M939.981,1699.891l37.315,2.834l-28.174-44.78c14.821-3.61,24.971-15.863,27.199-38.688c2.144-28.959-15.616-42.076-40.09-43.929
	l-47.334-3.549l-11.959,123.45l30.288,2.293l3.826-39.239l5.334,0.427l23.636,41.267L939.981,1699.891z M913.581,1631.342
	l2.748-28.256l17.569,1.355c18.929,1.433,16.183,29.685-2.747,28.252L913.581,1631.342z M1012.557,1663.313
	c2.78,28.087,28.74,38.785,53.311,35.438c24.571-3.349,47.646-20.628,44.868-48.716l-4.086-41.957
	c-2.779-28.088-28.739-38.786-53.31-35.438c-24.571,3.347-47.667,20.475-44.867,48.715L1012.557,1663.313z M1038.383,1617.345
	c-0.879-9.007,8.037-15.119,17.379-16.37c9.697-1.279,20.016,1.715,20.933,11.241l4.087,41.96
	c0.859,8.857-8.221,14.625-17.794,15.945c-9.55,1.254-19.659-1.743-20.54-10.75l-4.085-41.959L1038.383,1617.345z
	 M1193.967,1603.697l2.812,29.478l-0.461,0.141l-13.172-26.162l-34.386-51.45l-30.961,10.427l74.856,103.79l26.45-8.914
	l7.368-131.486l-30.96,10.427l-1.482,63.771L1193.967,1603.697z M1284.414,1530.484l46.414-26.844l-13.217-25.595l-73.286,42.379
	l55.639,107.715l73.284-42.378l-13.257-25.683l-46.413,26.843l-8.324-16.154l42.652-24.648l-12.206-23.594l-42.65,24.649
	l-8.612-16.756L1284.414,1530.484z M1341.85,1462.089l74.756,94.091l34.652-30.087c18.714-16.008,28.572-40.567,11.371-62.226
	l-25.104-31.642c-17.386-21.936-42.392-16.403-61.001-0.288l-34.652,30.085L1341.85,1462.089z M1422.423,1513.372l-39.357-49.58
	l11.874-10.312c7.83-6.828,14.712-6.262,19.587-0.17l23.343,29.396c4.876,6.094,4.429,13.435-3.51,20.374l-11.873,10.312
	L1422.423,1513.372z"/>
<polygon fill="#FFFFFF" points="999.353,590.526 982.939,623.784 946.237,629.117 972.795,655.004 966.525,691.559 999.353,674.3 
	1032.181,691.559 1025.911,655.004 1052.469,629.117 1015.767,623.784 "/>
<polygon fill="#FFFFFF" points="817.731,616.594 805.642,641.09 778.609,645.018 798.17,664.086 793.552,691.009 817.731,678.298 
	841.91,691.009 837.292,664.086 856.854,645.018 829.821,641.09 "/>
<polygon fill="#FFFFFF" points="1177.299,616.594 1165.209,641.09 1138.177,645.018 1157.737,664.086 1153.12,691.009 
	1177.299,678.298 1201.479,691.009 1196.86,664.086 1216.422,645.018 1189.389,641.09 "/>
<polygon fill="#FFFFFF" points="999.353,1297.585 982.939,1330.844 946.237,1336.177 972.795,1362.064 966.525,1398.618 
	999.353,1381.359 1032.181,1398.618 1025.911,1362.064 1052.469,1336.177 1015.767,1330.844 "/>
<polygon fill="#FFFFFF" points="817.731,1305.524 805.642,1330.02 778.609,1333.948 798.17,1353.016 793.552,1379.939 
	817.731,1367.228 841.91,1379.939 837.292,1353.016 856.854,1333.948 829.821,1330.02 "/>
<polygon fill="#FFFFFF" points="1177.299,1305.524 1165.209,1330.02 1138.177,1333.948 1157.737,1353.016 1153.12,1379.939 
	1177.299,1367.228 1201.479,1379.939 1196.86,1353.016 1216.422,1333.948 1189.389,1330.02 "/>
<path fill="#FFFFFF" d="M1477.608,769.029H517.385c2.938-6.164,5.983-12.292,9.138-18.311c0.653-1.197,1.269-2.43,1.922-3.626
	h938.141l0.254,0.471L1477.608,769.029z"/>
<path fill-rule="evenodd" clip-rule="evenodd" fill="#FFFFFF" d="M517.385,1230.178h960.224c-2.901,6.164-5.946,12.291-9.102,18.311
	H526.522L517.385,1230.178z"/>
<g>
	<polygon fill-rule="evenodd" clip-rule="evenodd" fill="#FFFFFF" points="754.532,1037.919 754.532,1185.266 794.697,1185.266 
		794.697,1079.93 795.854,1079.313 905.889,1079.313 905.889,1037.93 756.112,1037.93 	"/>
	<path fill-rule="evenodd" clip-rule="evenodd" fill="#FFFFFF" d="M980.945,979.909v149.036l73.561,0.072l1.035,0.049
		c65.061-0.446,117.649-53.131,117.649-118.047c0-64.818-52.421-117.446-117.324-118.049l-0.64,0.278l-300.685,0.038l-0.01,127.959
		l0.458,0.023l150.717,0.023l-0.109-41.384l-110.867-0.038l-0.034-0.808v-45.047l1.004-0.023l259.84,0.013
		c42.326,0.507,76.47,34.856,76.47,77.158c0,42.072-33.806,76.287-75.829,77.133l-1.594,0.024h-28.648l-3.467,0.085V979.909H980.945
		z"/>
	<polygon fill-rule="evenodd" clip-rule="evenodd" fill="#FFFFFF" points="1403.382,839.054 1356.768,839.054 1538.429,1145.271 
		1564.373,1102.29 	"/>
	<polygon fill-rule="evenodd" clip-rule="evenodd" fill="#FFFFFF" points="1431.776,1089.171 1294.303,1089.171 1294.303,1128.831 
		1506.063,1128.831 1352.423,874.603 1166.151,1184.945 1222.375,1184.945 1352.423,956.793 	"/>
	<polygon fill-rule="evenodd" clip-rule="evenodd" fill="#FFFFFF" points="1294.303,1184.945 1510.637,1184.859 1510.962,1183.908 
		1534.227,1144.927 1294.303,1144.864 	"/>
	<path fill-rule="evenodd" clip-rule="evenodd" fill="#FFFFFF" d="M1194.016,1104.507l14.018-23.689l144.532-242.107h-46.61
		l-84.282,137.75c-15.15-79.946-85.243-138.606-169.684-139.369h-1.604l-355.048,0.024l-0.013,347.806h40.156l0.011-307.831
		l314.894,0.009l1.279-0.034c73.365,0.688,132.646,60.183,132.646,133.453c0,73.389-59.448,132.946-132.97,133.463l-0.955-0.034
		h-90.751l0.011-0.324V979.552h-41.528l-0.17,164.071v40.912h132.439l1.604-0.011
		C1111.317,1183.99,1162.928,1150.065,1194.016,1104.507z"/>
</g>
<g>
	<polygon fill="#FFFFFF" points="1832.89,961.34 1604.05,961.34 1604.05,937.87 1831.52,937.87 	"/>
	<polygon fill="#FFFFFF" points="1832.97,1036.1 1831.66,1059.4 1604.05,1059.4 1604.05,1036.1 	"/>
</g>
<g>
	<polygon fill="#FFFFFF" points="390.98,961.34 161.71,961.34 163.08,937.87 390.98,937.87 	"/>
	<polygon fill="#FFFFFF" points="390.98,1036.1 390.98,1059.4 162.94,1059.4 161.63,1036.1 	"/>
</g>
<path d="M1801.841,769.029c-0.472-1.668-0.942-3.3-1.415-4.968c-1.269-4.496-2.574-8.956-3.952-13.343
	c-0.326-1.016-0.652-2.067-0.979-3.082c-52.142-167.047-158.128-316.98-298.452-422.206C1351.896,216.544,1179.156,159,997.497,159
	c-181.624,0-354.364,57.544-499.547,166.431C357.626,430.656,251.64,580.589,199.498,747.6c-0.326,1.052-0.652,2.067-0.943,3.119
	c-1.377,4.459-2.719,8.919-3.952,13.271c-0.472,1.668-0.979,3.372-1.415,5.04c-21.175,74.55-31.908,152.108-31.908,230.574
	s10.733,156.097,31.908,230.574c0.436,1.669,0.906,3.3,1.378,4.932c1.269,4.46,2.61,8.956,3.988,13.38
	c0.291,1.052,0.617,2.066,0.943,3.082c52.142,167.047,158.128,316.98,298.452,422.205
	c145.183,108.852,317.923,166.395,499.547,166.395c181.625,0,354.364-57.543,499.546-166.395
	c140.324-105.225,246.311-255.158,298.452-422.169c0.326-1.052,0.652-2.066,0.943-3.118c1.413-4.388,2.719-8.848,3.951-13.234
	c0.509-1.705,0.979-3.373,1.415-5.077c21.211-74.549,31.944-152.072,31.944-230.574
	C1833.749,921.065,1822.979,843.506,1801.841,769.029z M1760.903,1240.765c-0.798,2.575-1.631,5.149-2.465,7.724
	c-107.401,332.571-412.162,555.422-760.942,555.422c-348.743,0-653.504-222.814-760.941-555.422
	c-0.834-2.574-1.668-5.148-2.466-7.76c-1.125-3.517-2.176-6.998-3.227-10.552c-0.472-1.668-0.979-3.335-1.451-5.039
	c-21.139-72.846-31.872-148.737-31.872-225.535c0-76.798,10.732-152.688,31.908-225.643c0.472-1.632,0.943-3.3,1.451-4.931
	c1.015-3.517,2.066-7.034,3.19-10.588c0.797-2.574,1.631-5.149,2.466-7.723c107.437-332.572,412.198-555.459,760.941-555.459
	c348.744,0,653.541,222.851,760.942,555.459c0.834,2.574,1.667,5.149,2.465,7.759c1.124,3.481,2.176,6.999,3.19,10.552
	c0.509,1.668,1.016,3.372,1.487,5.076c21.175,72.773,31.909,148.664,31.909,225.498c0,76.834-10.734,152.725-31.945,225.607
	c-0.472,1.668-0.942,3.335-1.451,4.967C1763.079,1233.73,1762.027,1237.248,1760.903,1240.765z"/>
<g>
	<g>
		<path d="M402.995,663.073c5.175-12.727,13.203-28.572,22.938-44.197c16.228-25.943,30.703-39.556,45.555-46.891
			c16.007-7.953,31.933-7.226,45.783,4.392c15.033,12.636,19.234,28.715,17.972,44.187c-1.565,16.887-10.583,36.541-24.475,59.438
			c-8.309,13.727-14.471,23.539-18.849,30.154C462.277,694.462,432.636,678.768,402.995,663.073z M492.78,673.925
			c1.79-2.111,4.068-5.873,6.165-9.239c15.256-24.17,17.107-45.49-2.446-60.371c-16.768-12.979-37.153-5.023-53.526,20.858
			c-4.208,6.693-6.463,11.353-7.633,14.193C454.486,650.886,473.633,662.406,492.78,673.925z"/>
		<path d="M588.706,516.723c-12.513,11.225-24.649,23.055-36.368,35.491c5.876,5.599,11.753,11.198,17.63,16.796
			c12.575-13.345,25.65-25.963,39.171-37.856c4.174,4.777,8.348,9.555,12.522,14.332c-20.319,17.872-39.598,37.437-57.641,58.696
			c-25.926-22.277-51.852-44.554-77.777-66.832c20.562-24.227,42.486-46.587,65.564-67.079c4.196,4.758,8.392,9.516,12.588,14.274
			c-14.181,12.592-27.915,25.91-41.148,39.954c5.142,4.899,10.284,9.798,15.426,14.697c12.076-12.814,24.582-25.005,37.476-36.572
			C580.335,507.324,584.521,512.023,588.706,516.723z"/>
		<path d="M701.721,483.405c-3.353,4.507-12.049,12.442-24.564,20.965c-35.066,24.136-66.038,23.383-85.626,1.328
			c-23.36-25.988-8.762-65.419,28.745-90.627c14.353-9.667,26.824-14.323,32.91-15.481c1.242,6.411,2.542,12.802,3.898,19.17
			c-6.591,1.71-15.303,4.995-24.844,11.389c-21.521,14.416-30.535,35.857-16.356,53.722c12.805,16.187,32.73,16.572,54.108,2.187
			c7.282-4.897,14.667-11.353,18.615-15.892C693.013,474.549,697.385,478.963,701.721,483.405z"/>
		<path d="M758.842,409.191c-14.917,6.256-29.625,13.118-44.082,20.586c3.75,7.202,7.5,14.404,11.25,21.606
			c15.513-8.013,31.327-15.301,47.386-21.862c2.425,5.86,4.85,11.719,7.275,17.579c-24.133,9.86-47.693,21.413-70.483,34.66
			c-17.255-29.539-34.511-59.077-51.767-88.616c25.971-15.097,52.791-28.326,80.25-39.688c2.451,5.849,4.902,11.698,7.353,17.547
			c-16.874,6.981-33.499,14.689-49.825,23.122c3.281,6.302,6.562,12.604,9.843,18.906c14.897-7.695,30.053-14.766,45.424-21.212
			C753.925,397.61,756.383,403.401,758.842,409.191z"/>
		<path d="M788.776,443.861c-12.595-31.787-25.189-63.574-37.783-95.36c11.829-4.623,23.769-8.904,35.804-12.844
			c13.421,8.787,26.376,17.958,38.849,27.476c10.725,8.212,21.548,18.632,29.849,28.515c0.185-0.045,0.369-0.09,0.554-0.134
			c-5.09-12.694-9.065-25.966-12.8-40.867c-2.431-9.687-4.861-19.374-7.292-29.061c9.643-2.373,19.332-4.535,29.057-6.485
			c6.853,33.468,13.706,66.937,20.559,100.406c-9.436,1.892-18.831,4.019-28.174,6.38c-11.697-10.64-23.931-20.943-36.683-30.872
			c-10.598-8.257-23.07-18.131-33.437-27.283c-0.178,0.114-0.355,0.229-0.533,0.343c5.229,12.522,10.321,26.059,15.794,41.875
			c3.367,9.729,6.733,19.459,10.101,29.188C804.631,437.867,796.675,440.774,788.776,443.861z"/>
		<path d="M910.828,327.141c-12.328,1.667-24.614,3.678-36.843,6.033c-1.251-6.366-2.503-12.732-3.755-19.098
			c36.031-6.937,72.548-10.978,109.145-12.124c0.208,6.482,0.416,12.964,0.624,19.445c-12.626,0.396-25.244,1.146-37.833,2.25
			c2.475,27.555,4.951,55.109,7.426,82.663c-9.149,0.803-18.282,1.821-27.39,3.053C918.41,381.956,914.619,354.548,910.828,327.141z
			"/>
		<path d="M984.71,303.174c10.332-1.47,25.845-2.482,43.035-1.812c21.223,0.838,35.91,4.547,45.302,11.324
			c7.84,5.725,11.422,13.41,10.219,22.75c-1.731,12.951-14.796,20.354-26.303,22.579c-0.014,0.151-0.027,0.303-0.041,0.454
			c8.888,3.69,13.141,11.078,15.224,20.799c2.608,11.93,4.664,25.68,6.44,29.904c-9.289-1.233-18.604-2.244-27.936-3.031
			c-1.729-3.044-3.896-11.608-6.734-24.455c-2.449-12.953-7.86-16.879-19.795-17.49c-2.951-0.108-5.903-0.195-8.856-0.261
			c-0.309,13.423-0.617,26.845-0.926,40.268c-9.059-0.204-18.122-0.198-27.18,0.017C986.343,370.539,985.526,336.856,984.71,303.174
			z M1015.649,347.222c3.956,0.089,7.91,0.214,11.864,0.375c14.977,0.629,24.312-4.319,25.072-13.28
			c0.79-9.369-7.497-14.847-22-15.647c-7.65-0.327-12.009,0.041-14.287,0.289C1016.083,328.379,1015.866,337.8,1015.649,347.222z"/>
		<path d="M1116.553,388.684c-4.646,8.039-9.166,16.125-13.559,24.254c-9.354-1.646-18.743-3.063-28.158-4.251
			c16.647-32.324,35.438-63.983,56.319-94.77c13.914,2.661,27.757,5.753,41.504,9.278c5.728,36.744,9.18,73.403,10.384,109.763
			c-9.413-3.082-18.895-5.917-28.434-8.505c-0.688-9.275-1.519-18.563-2.494-27.86
			C1140.332,393.6,1128.473,390.963,1116.553,388.684z M1152.312,378.769c-0.872-7.682-1.842-15.37-2.908-23.062
			c-0.939-6.465-1.616-14.416-2.299-20.797c-0.136-0.03-0.271-0.06-0.406-0.09c-3.364,5.485-7.031,12.626-10.442,17.967
			c-4.149,6.532-8.213,13.099-12.189,19.7C1133.522,374.362,1142.94,376.456,1152.312,378.769z"/>
		<path d="M1222.307,337.954c10.313,3.499,20.554,7.25,30.712,11.253c-10.276,25.721-20.552,51.442-30.828,77.164
			c15.616,6.155,31.008,12.99,46.128,20.505c-2.911,5.806-5.823,11.613-8.734,17.419c-22.976-11.419-46.602-21.215-70.692-29.388
			C1200.03,402.589,1211.169,370.271,1222.307,337.954z"/>
		<path d="M1341.171,391.629c-17.124,29.615-34.248,59.23-51.372,88.845c-8.126-4.674-16.349-9.134-24.66-13.38
			c15.661-30.409,31.322-60.817,46.983-91.226C1321.912,380.869,1331.599,386.123,1341.171,391.629z"/>
		<path d="M1301.408,472.786c29.278-9.958,60.187-17.732,92.461-22.977c0.121-0.163,0.242-0.326,0.363-0.489
			c-16.615-12.337-33.715-23.786-51.23-34.347c3.312-5.471,6.624-10.942,9.936-16.414c30.289,18.263,59.371,39.105,86.902,62.529
			c-2.884,3.41-5.769,6.82-8.653,10.23c-32.277,2.926-63.371,8.432-93.014,16.192c-0.114,0.167-0.229,0.335-0.345,0.503
			c16.813,11.507,33.129,23.978,48.865,37.411c-4.138,4.875-8.275,9.751-12.414,14.627c-25.017-21.356-51.547-40.197-79.234-56.522
			C1297.166,479.948,1299.287,476.367,1301.408,472.786z"/>
		<path d="M1466.591,570.693c-11.306-13.022-23.049-25.439-35.188-37.25c-5.636,5.844-11.271,11.689-16.905,17.534
			c13.026,12.674,25.578,26.074,37.6,40.2c-4.803,4.138-9.605,8.276-14.408,12.414c-18.065-21.228-37.366-40.762-57.704-58.603
			c22.474-25.788,44.946-51.577,67.419-77.365c23.178,20.331,45.211,42.529,65.891,66.595c-4.784,4.161-9.567,8.322-14.351,12.483
			c-12.708-14.789-25.94-28.852-39.648-42.189c-4.931,5.114-9.861,10.228-14.792,15.342c12.509,12.17,24.609,24.965,36.26,38.384
			C1476.039,562.391,1471.315,566.542,1466.591,570.693z"/>
		<path d="M1521.399,545.982c9.227,9.034,20.267,21.901,30.737,36.631c17.382,24.541,24.727,43.674,26.07,60.728
			c1.529,18.44-4.902,33.538-20.898,41.922c-17.374,9.113-34.09,6.288-48.096-1.218c-15.209-8.373-30.147-24.657-45.528-45.747
			c-9.218-12.619-15.511-21.59-19.639-27.825C1469.83,588.977,1495.615,567.479,1521.399,545.982z M1476.195,623.989
			c1.213,2.404,3.739,5.864,5.994,9.037c16.133,22.97,35.451,33.45,56.563,20.922c18.369-10.582,18.391-33.224,1.066-57.946
			c-4.482-6.36-7.822-10.113-9.938-12.215C1511.985,597.188,1494.09,610.589,1476.195,623.989z"/>
	</g>
</g>
<text transform="matrix(1 0 0 1 405.9814 1200.2676)" fill="#FFFFFF" stroke="#000000" stroke-width="3" stroke-miterlimit="10" font-family="'GingerPeachyNF'" font-size="352" letter-spacing="-23">d</text>
</svg>
