<?xml version="1.0" encoding="utf-8"?>
<!-- Generator: Adobe Illustrator 16.0.0, SVG Export Plug-In . SVG Version: 6.00 Build 0)  -->
<!DOCTYPE svg PUBLIC "-//W3C//DTD SVG 1.1//EN" "http://www.w3.org/Graphics/SVG/1.1/DTD/svg11.dtd">
<svg version="1.1" id="Ñëîé_1" xmlns="http://www.w3.org/2000/svg" xmlns:xlink="http://www.w3.org/1999/xlink" x="0px" y="0px"
	 width="1593.159px" height="461.148px" viewBox="0 0 1593.159 461.148" enable-background="new 0 0 1593.159 461.148"
	 xml:space="preserve">
<g>
	<polygon fill-rule="evenodd" clip-rule="evenodd" fill="#FFFFFF" points="88.541,320.241 88.541,429.732 118.388,429.732 
		118.388,351.459 119.248,351.001 201.013,351.001 201.013,320.249 89.716,320.249 	"/>
	<path fill-rule="evenodd" clip-rule="evenodd" fill="#FFFFFF" d="M256.786,277.135v110.747l54.662,0.054l0.77,0.036
		c48.345-0.332,87.423-39.481,87.423-87.72c0-48.165-38.953-87.272-87.182-87.72l-0.476,0.207l-223.435,0.028l-0.008,95.085
		l0.341,0.018l111.996,0.018l-0.081-30.752l-82.383-0.028l-0.025-0.601v-33.474l0.746-0.018l193.083,0.01
		c31.452,0.377,56.824,25.901,56.824,57.335c0,31.264-25.121,56.688-56.348,57.316l-1.185,0.019h-21.288l-2.576,0.063v-80.623
		H256.786z"/>
	<polygon fill-rule="evenodd" clip-rule="evenodd" fill="#FFFFFF" points="570.693,172.467 536.055,172.467 671.046,400.013 
		690.324,368.074 	"/>
	<polygon fill-rule="evenodd" clip-rule="evenodd" fill="#FFFFFF" points="591.793,358.326 489.638,358.326 489.638,387.797 
		646.996,387.797 532.826,198.883 394.41,429.494 436.189,429.494 532.826,259.957 	"/>
	<polygon fill-rule="evenodd" clip-rule="evenodd" fill="#FFFFFF" points="489.638,429.494 650.394,429.431 650.636,428.724 
		667.923,399.757 489.638,399.711 	"/>
	<path fill-rule="evenodd" clip-rule="evenodd" fill="#FFFFFF" d="M415.115,369.722l10.417-17.604l107.399-179.906h-34.635
		l-62.629,102.36c-11.259-59.407-63.344-102.997-126.09-103.563h-1.192l-263.832,0.018l-0.01,258.45h29.839l0.008-228.744
		l233.994,0.006l0.951-0.025c54.516,0.511,98.567,44.721,98.567,99.167c0,54.534-44.175,98.791-98.808,99.175l-0.709-0.025H240.95
		l0.008-0.241V276.869h-30.859l-0.127,121.919v30.401h98.414l1.192-0.008C353.664,428.785,392.015,403.576,415.115,369.722z"/>
</g>
<g>
	<polygon fill="#FFFFFF" points="2378.926,-59.232 2150.086,-59.232 2150.086,-82.702 2377.556,-82.702 	"/>
	<polygon fill="#FFFFFF" points="2379.006,15.527 2377.696,38.828 2150.086,38.828 2150.086,15.527 	"/>
</g>
<text transform="matrix(1 0 0 1 44.5444 140.2095)" fill="#FFFFFF" font-family="'GingerPeachyNF'" font-size="162" letter-spacing="-10">dECENTRALIZED</text>
<text transform="matrix(1 0 0 1 719.2852 429.7324)" fill="#FFFFFF" font-family="'GingerPeachyNF'" font-size="352" letter-spacing="-23">DAO</text>
</svg>
